<svg data-v-fde0c5aa="" xmlns="http://www.w3.org/2000/svg" viewBox="0 0 300 300" class="iconLeftSlogan"><!----><defs data-v-fde0c5aa=""><!----></defs><rect data-v-fde0c5aa="" fill="#EFEEEB" x="0" y="0" width="300px" height="300px" class="logo-background-square"></rect><defs data-v-fde0c5aa=""><!----></defs><g data-v-fde0c5aa="" id="d612de27-9837-443a-9e86-8266426181a1" fill="#1F1E1A" transform="matrix(3.3621463024353635,0,0,3.3621463024353635,121.34508705670028,117.25844221473726)"><path d="M5.53 11.26L5.53 11.26L5.53 11.26Q5.17 11.61 4.61 11.86L4.61 11.86L4.61 11.86Q4.06 12.11 3.58 12.14L3.58 12.14L3.58 12.14Q3.25 12.17 2.92 12.15L2.92 12.15L2.92 12.15Q2.59 12.12 2.21 12.05L2.21 12.05L2.21 12.05Q1.83 11.98 1.53 11.91L1.53 11.91L1.53 11.91Q1.23 11.84 1.08 11.77L1.08 11.77L1.08 11.77Q0.87 11.69 0.83 11.65L0.83 11.65L0.83 11.65Q0.78 11.61 0.81 11.45L0.81 11.45L0.91 10.49L0.91 10.49Q0.94 10.39 0.99 10.36L0.99 10.36L0.99 10.36Q1.04 10.33 1.20 10.40L1.20 10.40L1.20 10.40Q1.34 10.46 1.66 10.56L1.66 10.56L1.66 10.56Q1.97 10.65 2.33 10.71L2.33 10.71L2.33 10.71Q2.69 10.77 3.00 10.78L3.00 10.78L3.00 10.78Q3.30 10.79 3.61 10.72L3.61 10.72L3.61 10.72Q4.20 10.61 4.48 10.26L4.48 10.26L4.48 10.26Q4.76 9.91 4.76 9.42L4.76 9.42L4.76 9.42Q4.76 8.95 4.41 8.55L4.41 8.55L4.41 8.55Q4.06 8.15 3.61 7.84L3.61 7.84L3.61 7.84Q3.01 7.43 2.45 7.05L2.45 7.05L2.45 7.05Q1.89 6.66 1.53 6.28L1.53 6.28L1.53 6.28Q1.16 5.89 0.99 5.50L0.99 5.50L0.99 5.50Q0.81 5.11 0.81 4.63L0.81 4.63L0.81 4.63Q0.81 4.13 1.06 3.65L1.06 3.65L1.06 3.65Q1.32 3.18 1.74 2.81L1.74 2.81L1.74 2.81Q2.16 2.44 2.67 2.24L2.67 2.24L2.67 2.24Q3.18 2.04 3.88 2.04L3.88 2.04L3.88 2.04Q4.45 2.04 4.91 2.14L4.91 2.14L4.91 2.14Q5.38 2.23 5.71 2.32L5.71 2.32L5.71 2.32Q5.87 2.39 5.89 2.44L5.89 2.44L5.89 2.44Q5.91 2.49 5.89 2.60L5.89 2.60L5.73 3.50L5.73 3.50Q5.68 3.63 5.62 3.68L5.62 3.68L5.62 3.68Q5.56 3.74 5.39 3.68L5.39 3.68L5.39 3.68Q5.18 3.64 4.96 3.58L4.96 3.58L4.96 3.58Q4.73 3.51 4.50 3.47L4.50 3.47L4.50 3.47Q4.27 3.43 4.06 3.42L4.06 3.42L4.06 3.42Q3.85 3.40 3.65 3.42L3.65 3.42L3.65 3.42Q3.02 3.50 2.71 3.85L2.71 3.85L2.71 3.85Q2.39 4.20 2.39 4.72L2.39 4.72L2.39 4.72Q2.39 5.05 2.67 5.40L2.67 5.40L2.67 5.40Q2.95 5.75 3.64 6.20L3.64 6.20L3.64 6.20Q4.42 6.72 4.94 7.10L4.94 7.10L4.94 7.10Q5.46 7.48 5.78 7.83L5.78 7.83L5.78 7.83Q6.10 8.19 6.22 8.55L6.22 8.55L6.22 8.55Q6.34 8.90 6.34 9.32L6.34 9.32L6.34 9.32Q6.34 10.46 5.53 11.26ZM13.12 11.90L12.00 11.90L12.00 11.90Q11.90 11.90 11.88 11.89L11.88 11.89L11.88 11.89Q11.86 11.87 11.86 11.79L11.86 11.79L11.86 11.14L11.86 11.14Q11.52 11.63 11.02 11.88L11.02 11.88L11.02 11.88Q10.51 12.12 10.00 12.12L10.00 12.12L10.00 12.12Q9.59 12.12 9.13 11.98L9.13 11.98L9.13 11.98Q8.68 11.83 8.36 11.54L8.36 11.54L8.36 11.54Q8.04 11.26 7.85 10.84L7.85 10.84L7.85 10.84Q7.66 10.42 7.66 9.86L7.66 9.86L7.66 9.86Q7.66 9.25 7.90 8.76L7.90 8.76L7.90 8.76Q8.15 8.26 8.65 7.92L8.65 7.92L8.65 7.92Q9.16 7.59 9.88 7.43L9.88 7.43L9.88 7.43Q10.60 7.27 11.72 7.27L11.72 7.27L11.72 7.27Q11.72 7.01 11.67 6.80L11.67 6.80L11.67 6.80Q11.62 6.58 11.49 6.38L11.49 6.38L11.49 6.38Q11.37 6.19 11.14 6.06L11.14 6.06L11.14 6.06Q10.91 5.92 10.57 5.92L10.57 5.92L10.57 5.92Q10.12 5.92 9.64 6.09L9.64 6.09L9.64 6.09Q9.16 6.26 8.74 6.54L8.74 6.54L8.74 6.54Q8.53 6.68 8.45 6.66L8.45 6.66L8.45 6.66Q8.37 6.65 8.37 6.51L8.37 6.51L8.37 5.42L8.37 5.42Q8.37 5.39 8.37 5.31L8.37 5.31L8.37 5.31Q8.36 5.24 8.41 5.19L8.41 5.19L8.41 5.19Q8.48 5.12 8.60 5.07L8.60 5.07L8.60 5.07Q9.02 4.83 9.52 4.68L9.52 4.68L9.52 4.68Q10.02 4.52 10.54 4.52L10.54 4.52L10.54 4.52Q11.89 4.52 12.55 5.20L12.55 5.20L12.55 5.20Q13.22 5.88 13.22 7.15L13.22 7.15L13.22 10.23L13.22 10.23Q13.22 10.61 13.22 11.00L13.22 11.00L13.22 11.00Q13.23 11.40 13.27 11.70L13.27 11.70L13.27 11.70Q13.29 11.90 13.12 11.90L13.12 11.90ZM9.16 9.76L9.16 9.76L9.16 9.76Q9.16 10.25 9.45 10.49L9.45 10.49L9.45 10.49Q9.74 10.74 10.08 10.74L10.08 10.74L10.08 10.74Q10.82 10.74 11.30 10.16L11.30 10.16L11.30 10.16Q11.77 9.58 11.77 8.75L11.77 8.75L11.77 8.60L11.77 8.60Q10.28 8.60 9.72 8.90L9.72 8.90L9.72 8.90Q9.16 9.20 9.16 9.76ZM19.91 11.90L18.73 11.90L18.73 11.90Q18.56 11.90 18.56 11.73L18.56 11.73L18.56 8.01L18.56 8.01Q18.56 6.96 18.33 6.48L18.33 6.48L18.33 6.48Q18.09 5.99 17.56 5.99L17.56 5.99L17.56 5.99Q16.28 5.99 16.14 7.48L16.14 7.48L16.14 11.73L16.14 11.73Q16.14 11.90 15.99 11.90L15.99 11.90L14.81 11.90L14.81 11.90Q14.76 11.90 14.71 11.85L14.71 11.85L14.71 11.85Q14.66 11.80 14.66 11.73L14.66 11.73L14.66 1.54L14.66 1.54Q14.66 1.47 14.71 1.42L14.71 1.42L14.71 1.42Q14.76 1.37 14.81 1.37L14.81 1.37L15.90 1.37L15.90 1.37Q15.96 1.37 16.00 1.42L16.00 1.42L16.00 1.42Q16.04 1.47 16.04 1.54L16.04 1.54L16.04 5.32L16.04 5.32Q16.35 4.94 16.77 4.75L16.77 4.75L16.77 4.75Q17.18 4.56 17.61 4.56L17.61 4.56L17.61 4.56Q20.06 4.56 20.06 7.99L20.06 7.99L20.06 11.73L20.06 11.73Q20.06 11.80 20.01 11.85L20.01 11.85L20.01 11.85Q19.96 11.90 19.91 11.90L19.91 11.90ZM27.12 11.90L26.00 11.90L26.00 11.90Q25.90 11.90 25.88 11.89L25.88 11.89L25.88 11.89Q25.86 11.87 25.86 11.79L25.86 11.79L25.86 11.14L25.86 11.14Q25.52 11.63 25.02 11.88L25.02 11.88L25.02 11.88Q24.51 12.12 24.00 12.12L24.00 12.12L24.00 12.12Q23.59 12.12 23.14 11.98L23.14 11.98L23.14 11.98Q22.68 11.83 22.36 11.54L22.36 11.54L22.36 11.54Q22.04 11.26 21.85 10.84L21.85 10.84L21.85 10.84Q21.66 10.42 21.66 9.86L21.66 9.86L21.66 9.86Q21.66 9.25 21.90 8.76L21.90 8.76L21.90 8.76Q22.15 8.26 22.65 7.92L22.65 7.92L22.65 7.92Q23.16 7.59 23.88 7.43L23.88 7.43L23.88 7.43Q24.60 7.27 25.72 7.27L25.72 7.27L25.72 7.27Q25.72 7.01 25.67 6.80L25.67 6.80L25.67 6.80Q25.62 6.58 25.49 6.38L25.49 6.38L25.49 6.38Q25.37 6.19 25.14 6.06L25.14 6.06L25.14 6.06Q24.91 5.92 24.57 5.92L24.57 5.92L24.57 5.92Q24.12 5.92 23.64 6.09L23.64 6.09L23.64 6.09Q23.16 6.26 22.74 6.54L22.74 6.54L22.74 6.54Q22.53 6.68 22.45 6.66L22.45 6.66L22.45 6.66Q22.37 6.65 22.37 6.51L22.37 6.51L22.37 5.42L22.37 5.42Q22.37 5.39 22.36 5.31L22.36 5.31L22.36 5.31Q22.36 5.24 22.41 5.19L22.41 5.19L22.41 5.19Q22.48 5.12 22.60 5.07L22.60 5.07L22.60 5.07Q23.02 4.83 23.52 4.68L23.52 4.68L23.52 4.68Q24.02 4.52 24.54 4.52L24.54 4.52L24.54 4.52Q25.89 4.52 26.55 5.20L26.55 5.20L26.55 5.20Q27.22 5.88 27.22 7.15L27.22 7.15L27.22 10.23L27.22 10.23Q27.22 10.61 27.22 11.00L27.22 11.00L27.22 11.00Q27.23 11.40 27.27 11.70L27.27 11.70L27.27 11.70Q27.29 11.90 27.12 11.90L27.12 11.90ZM23.16 9.76L23.16 9.76L23.16 9.76Q23.16 10.25 23.45 10.49L23.45 10.49L23.45 10.49Q23.74 10.74 24.08 10.74L24.08 10.74L24.08 10.74Q24.82 10.74 25.30 10.16L25.30 10.16L25.30 10.16Q25.77 9.58 25.77 8.75L25.77 8.75L25.77 8.60L25.77 8.60Q24.28 8.60 23.72 8.90L23.72 8.90L23.72 8.90Q23.16 9.20 23.16 9.76ZM32.58 11.90L28.80 11.90L28.80 11.90Q28.73 11.90 28.68 11.85L28.68 11.85L28.68 11.85Q28.63 11.80 28.63 11.72L28.63 11.72L28.63 10.63L28.63 10.63Q28.63 10.56 28.68 10.51L28.68 10.51L28.68 10.51Q28.73 10.46 28.80 10.46L28.80 10.46L29.68 10.46L29.68 6.59L29.68 6.10L28.53 6.10L28.53 6.10Q28.46 6.10 28.41 6.06L28.41 6.06L28.41 6.06Q28.36 6.01 28.36 5.92L28.36 5.92L28.36 4.87L28.36 4.87Q28.36 4.80 28.41 4.75L28.41 4.75L28.41 4.75Q28.46 4.70 28.53 4.70L28.53 4.70L30.83 4.70L30.83 4.70Q30.88 4.70 30.92 4.74L30.92 4.74L30.92 4.74Q30.95 4.77 30.95 4.83L30.95 4.83L30.95 6.02L30.95 6.02Q31.09 5.73 31.25 5.51L31.25 5.51L31.25 5.51Q31.42 5.29 31.61 5.12L31.61 5.12L31.61 5.12Q31.79 4.94 32.04 4.80L32.04 4.80L32.04 4.80Q32.28 4.65 32.76 4.54L32.76 4.54L32.76 4.54Q33.36 4.44 33.93 4.56L33.93 4.56L33.93 4.56Q34.50 4.69 34.87 5.00L34.87 5.00L34.87 5.00Q34.94 5.07 34.93 5.12L34.93 5.12L34.93 5.12Q34.92 5.18 34.90 5.24L34.90 5.24L34.44 6.19L34.44 6.19Q34.41 6.27 34.35 6.30L34.35 6.30L34.35 6.30Q34.29 6.33 34.19 6.27L34.19 6.27L34.19 6.27Q33.87 6.09 33.47 6.02L33.47 6.02L33.47 6.02Q33.08 5.95 32.70 6.02L32.70 6.02L32.70 6.02Q32.05 6.15 31.67 6.65L31.67 6.65L31.67 6.65Q31.29 7.15 31.21 7.67L31.21 7.67L31.21 7.67Q31.12 8.19 31.12 8.89L31.12 8.89L31.12 10.46L32.58 10.46L32.58 10.46Q32.65 10.46 32.70 10.51L32.70 10.51L32.70 10.51Q32.75 10.56 32.75 10.63L32.75 10.63L32.75 11.72L32.75 11.72Q32.75 11.90 32.58 11.90L32.58 11.90ZM41.08 11.90L35.94 11.90L35.94 11.90Q35.87 11.90 35.82 11.85L35.82 11.85L35.82 11.85Q35.77 11.80 35.77 11.72L35.77 11.72L35.77 10.63L35.77 10.63Q35.77 10.56 35.82 10.51L35.82 10.51L35.82 10.51Q35.87 10.46 35.94 10.46L35.94 10.46L37.84 10.46L37.84 6.15L36.19 6.15L36.19 6.15Q36.12 6.15 36.07 6.10L36.07 6.10L36.07 6.10Q36.02 6.05 36.02 5.96L36.02 5.96L36.02 4.87L36.02 4.87Q36.02 4.80 36.07 4.75L36.07 4.75L36.07 4.75Q36.12 4.70 36.19 4.70L36.19 4.70L39.19 4.70L39.19 4.70Q39.26 4.70 39.30 4.75L39.30 4.75L39.30 4.75Q39.35 4.80 39.35 4.87L39.35 4.87L39.35 10.46L41.08 10.46L41.08 10.46Q41.15 10.46 41.20 10.51L41.20 10.51L41.20 10.51Q41.24 10.56 41.24 10.63L41.24 10.63L41.24 11.72L41.24 11.72Q41.24 11.90 41.08 11.90L41.08 11.90ZM38.40 3.60L38.40 3.60L38.40 3.60Q37.95 3.60 37.65 3.29L37.65 3.29L37.65 3.29Q37.34 2.98 37.34 2.55L37.34 2.55L37.34 2.55Q37.34 2.09 37.65 1.77L37.65 1.77L37.65 1.77Q37.95 1.46 38.40 1.46L38.40 1.46L38.40 1.46Q38.86 1.46 39.18 1.77L39.18 1.77L39.18 1.77Q39.49 2.09 39.49 2.55L39.49 2.55L39.49 2.55Q39.49 2.98 39.18 3.29L39.18 3.29L39.18 3.29Q38.86 3.60 38.40 3.60Z"></path></g><defs data-v-fde0c5aa=""><linearGradient data-v-fde0c5aa="" gradientTransform="rotate(25)" id="fd1a68a5-56b1-4479-b518-f20d3a915d6e" x1="0%" y1="0%" x2="100%" y2="0%"><stop data-v-fde0c5aa="" offset="0%" stop-color="#0978A6" stop-opacity="1"></stop><stop data-v-fde0c5aa="" offset="100%" stop-color="#FB9447" stop-opacity="1"></stop></linearGradient></defs><g data-v-fde0c5aa="" id="94dc69fe-399b-47de-a35a-66805a03c8de" stroke="none" fill="url(#fd1a68a5-56b1-4479-b518-f20d3a915d6e)" transform="matrix(0.9865361299952592,0,0,0.9865361299952592,36.05385548001896,111.7110957271403)"><path d="M54.475 27.95c-7.65.22-15.95 7.8-22.475 8.05-6.96.267-10.95-4.877-16-4-5.05.877-11.85 7.925-11.85 7.925L4 76h72V40S64.055 28.884 56 28a11.092 11.092 0 0 0-1.525-.05zM14.8 36.475h.375l.575.075.3-.05s1.176 1.881 2.225 2.85c.18.078.431-.151.6-.05.138.335.275.675.275.675s-.488.422-.6.45c-.112.028-1.025.3-1.025.3l-.675.425s-.154-.224-.15-.35c.005-.15.196.01.2-.4.004-.41-.497-1.289-.85-1.825S14.825 37.2 14.825 37.2l-.025-.725zm5.3.2s.188 1.158.4 1.7c.102.26.203.527.4.725.16.16.567.291.6.35.111.199.1.625.1.625l-.1.125-.275-.475-.675.25-.525.05-.4-.05s-.084.419-.2.35c-.22-.13-.31-.669-.075-.8.093-.052.29-.244.325-.225l-.5-1.95.175-.1.25-.325.5-.25zm1 3.325l.3.5.075.05s.265.752.525 1.025c.117.124.293.183.45.25.284.12.66.028.875.25.184.19.131.519.2.775.099.368.23.835.475 1.15.316.407.855.616 1.225.975.275.266.65.8.65.8s.67 1.199 1.05 1.9c-.01.128-.1.268-.225.3-.48.01-1.062-.67-1.5-1.025-.095.104.405.745.5.85.317.35.714.57 1.125.825.171.106.512.197.55.25-.057.145-.302.196-.5.2a4.487 4.487 0 0 1-.85-.1c-.112-.028-.59-.34-.875-.525-.152-.099-.314-.142-.475-.225-.291-.15-.625-.396-1.025-.45-.355-.048-.6.075-.6.075l-1 .25-.4.025-.625.25s-.206.097-.325.225c-.163-.091-.195-.38-.375-.45-.061-.024-.375-.425-.375-.425l-.25-.1-.25-.25-.325-.375s-.063-.423-.175-.6c-.138-.218-.575-.525-.575-.525s-.415-.356-.675-.4c-.084-.014-.203-.02-.25.05-.168.253.409.706.175.9-.039.032-.094-.019-.15-.075-.056-.056-.61-.637-.75-1.05-.168-.495-.12-1.057-.05-1.575.062-.465.182-.934.4-1.35.127-.243.525-.65.525-.65l-.3-.525.325-.275L18.9 40.5l.425.45.175-.25.2.025.1-.5.7-.025.6-.2zm-2.35 2.875c-.65.026-1.2.44-1.225 1.1l.05.2c.148.67.54 1.224 1.225 1.25a1.277 1.277 0 0 0 1.325-1.225c.026-.703-.547-1.299-1.25-1.325a1.579 1.579 0 0 0-.125 0z"></path><path style="text-indent:0;text-transform:none;block-progression:tb" d="M27.9 1.625A2.4 2.4 0 0 0 25.6 4v40h4.8V4a2.4 2.4 0 0 0-2.5-2.375z" overflow="visible" color="#000"></path><path style="text-indent:0;text-transform:none;block-progression:tb" d="M35.825 9.975a2 2 0 0 0-1.75 2.55s.297 1.108.45 2.575c.153 1.467.062 3.224-.325 4.05-.025.052.068.03-.35.1s-1.198.03-1.975-.125c-1.555-.31-3.075-.95-3.075-.95a2 2 0 1 0-1.6 3.65s1.796.805 3.9 1.225c1.052.21 2.19.354 3.4.15s2.64-.941 3.3-2.35c.98-2.096.888-4.347.7-6.15-.188-1.803-.575-3.225-.575-3.225a2 2 0 0 0-2.1-1.5z" overflow="visible" color="#000"></path><path style="text-indent:0;text-transform:none;block-progression:tb" d="M19.75 5.975a2 2 0 0 0-1.725 1.65s-.28 1.48-.425 3.3c-.146 1.82-.299 3.939.575 5.9.672 1.508 2.065 2.525 3.4 2.825 1.335.3 2.548.078 3.625-.225 2.154-.606 3.875-1.75 3.875-1.75a2 2 0 1 0-2.15-3.35s-1.4.856-2.8 1.25c-.7.197-1.343.225-1.675.15-.332-.075-.406-.058-.625-.55-.211-.474-.376-2.354-.25-3.925.126-1.57.4-2.875.4-2.875a2 2 0 0 0-2.225-2.4z" overflow="visible" color="#000"></path></g><defs data-v-fde0c5aa=""><!----></defs><g data-v-fde0c5aa="" id="f6d35279-7913-4abc-82de-0245895983fd" fill="#1F1E1A" transform="matrix(0.3662869820102998,0,0,0.3662869820102998,123.90972665079214,166.27834227322478)"><path d="M2.24 6.19L2.24 14.03L3.47 14.03L3.47 14.03Q5.27 14.03 6.37 12.95L6.37 12.95L6.37 12.95Q7.46 11.87 7.46 10.12L7.46 10.12L7.46 10.12Q7.46 8.20 6.41 7.18L6.41 7.18L6.41 7.18Q5.36 6.16 3.42 6.16L3.42 6.16L3.42 6.16Q2.43 6.16 2.24 6.19L2.24 6.19ZM3.28 14.40L0.33 14.40L0.39 14.11L1.54 13.90L1.54 6.51L0.37 6.36L0.44 6.12L0.44 6.12Q2.52 5.79 3.68 5.79L3.68 5.79L3.68 5.79Q4.64 5.79 5.42 6.03L5.42 6.03L5.42 6.03Q6.19 6.26 6.71 6.66L6.71 6.66L6.71 6.66Q7.22 7.05 7.56 7.59L7.56 7.59L7.56 7.59Q7.90 8.13 8.05 8.71L8.05 8.71L8.05 8.71Q8.20 9.29 8.20 9.92L8.20 9.92L8.20 9.92Q8.20 10.64 8.03 11.28L8.03 11.28L8.03 11.28Q7.86 11.93 7.48 12.50L7.48 12.50L7.48 12.50Q7.10 13.08 6.53 13.49L6.53 13.49L6.53 13.49Q5.97 13.91 5.14 14.15L5.14 14.15L5.14 14.15Q4.31 14.40 3.28 14.40L3.28 14.40ZM17.08 6.33L15.90 6.16L15.94 5.89L19.07 5.89L19.02 6.16L17.82 6.32L17.82 13.95L19.14 14.08L19.08 14.40L15.97 14.40L16.00 14.11L17.08 13.90L17.08 6.33ZM26.86 13.60L26.86 13.60L27.06 11.66L27.39 11.71L27.58 13.21L27.58 13.21Q27.81 13.64 28.34 13.89L28.34 13.89L28.34 13.89Q28.87 14.14 29.47 14.14L29.47 14.14L29.47 14.14Q30.15 14.14 30.63 13.74L30.63 13.74L30.63 13.74Q31.11 13.33 31.11 12.61L31.11 12.61L31.11 12.61Q31.11 12.20 30.90 11.83L30.90 11.83L30.90 11.83Q30.68 11.46 30.33 11.18L30.33 11.18L30.33 11.18Q29.99 10.90 29.57 10.63L29.57 10.63L29.57 10.63Q29.15 10.36 28.73 10.07L28.73 10.07L28.73 10.07Q28.31 9.79 27.97 9.48L27.97 9.48L27.97 9.48Q27.62 9.17 27.41 8.75L27.41 8.75L27.41 8.75Q27.19 8.33 27.19 7.84L27.19 7.84L27.19 7.84Q27.19 6.88 27.89 6.29L27.89 6.29L27.89 6.29Q28.58 5.71 29.46 5.71L29.46 5.71L29.46 5.71Q30.05 5.71 30.59 5.90L30.59 5.90L30.59 5.90Q31.13 6.09 31.46 6.46L31.46 6.46L31.23 8.58L30.92 8.53L30.73 6.87L30.73 6.87Q30.55 6.54 30.13 6.32L30.13 6.32L30.13 6.32Q29.72 6.10 29.29 6.10L29.29 6.10L29.29 6.10Q28.69 6.10 28.28 6.48L28.28 6.48L28.28 6.48Q27.86 6.87 27.86 7.52L27.86 7.52L27.86 7.52Q27.86 7.96 28.09 8.35L28.09 8.35L28.09 8.35Q28.31 8.74 28.66 9.03L28.66 9.03L28.66 9.03Q29.01 9.32 29.44 9.61L29.44 9.61L29.44 9.61Q29.86 9.89 30.29 10.17L30.29 10.17L30.29 10.17Q30.71 10.45 31.07 10.75L31.07 10.75L31.07 10.75Q31.42 11.05 31.64 11.45L31.64 11.45L31.64 11.45Q31.86 11.85 31.86 12.29L31.86 12.29L31.86 12.29Q31.86 13.28 31.11 13.93L31.11 13.93L31.11 13.93Q30.36 14.57 29.11 14.57L29.11 14.57L29.11 14.57Q28.40 14.57 27.80 14.30L27.80 14.30L27.80 14.30Q27.20 14.03 26.86 13.60ZM39.61 10.25L39.61 10.25L39.61 10.25Q39.61 9.73 39.71 9.21L39.71 9.21L39.71 9.21Q39.82 8.68 40.02 8.17L40.02 8.17L40.02 8.17Q40.22 7.66 40.55 7.22L40.55 7.22L40.55 7.22Q40.88 6.77 41.29 6.44L41.29 6.44L41.29 6.44Q41.71 6.10 42.26 5.90L42.26 5.90L42.26 5.90Q42.82 5.71 43.46 5.71L43.46 5.71L43.46 5.71Q44.87 5.71 45.78 6.39L45.78 6.39L45.57 8.70L45.25 8.64L45.04 6.87L45.04 6.87Q44.45 6.09 43.13 6.09L43.13 6.09L43.13 6.09Q41.99 6.09 41.16 7.19L41.16 7.19L41.16 7.19Q40.33 8.30 40.33 10.00L40.33 10.00L40.33 10.00Q40.33 11.92 41.14 12.97L41.14 12.97L41.14 12.97Q41.94 14.03 43.42 14.03L43.42 14.03L43.42 14.03Q44.15 14.03 44.84 13.65L44.84 13.65L44.84 13.65Q45.53 13.28 46.00 12.74L46.00 12.74L46.16 12.99L46.16 12.99Q45.99 13.25 45.70 13.51L45.70 13.51L45.70 13.51Q45.41 13.77 45.02 14.02L45.02 14.02L45.02 14.02Q44.64 14.27 44.13 14.42L44.13 14.42L44.13 14.42Q43.63 14.57 43.10 14.57L43.10 14.57L43.10 14.57Q41.53 14.57 40.57 13.40L40.57 13.40L40.57 13.40Q39.61 12.22 39.61 10.25ZM54.61 9.75L54.61 9.75L54.61 9.75Q54.61 11.03 54.97 12.01L54.97 12.01L54.97 12.01Q55.34 13.00 56.05 13.57L56.05 13.57L56.05 13.57Q56.77 14.14 57.75 14.14L57.75 14.14L57.75 14.14Q58.32 14.14 58.82 13.92L58.82 13.92L58.82 13.92Q59.31 13.70 59.65 13.33L59.65 13.33L59.65 13.33Q60.00 12.96 60.24 12.49L60.24 12.49L60.24 12.49Q60.48 12.01 60.60 11.50L60.60 11.50L60.60 11.50Q60.72 10.99 60.72 10.48L60.72 10.48L60.72 10.48Q60.72 8.50 59.87 7.29L59.87 7.29L59.87 7.29Q59.01 6.07 57.57 6.07L57.57 6.07L57.57 6.07Q56.98 6.07 56.49 6.28L56.49 6.28L56.49 6.28Q56 6.49 55.66 6.85L55.66 6.85L55.66 6.85Q55.32 7.21 55.08 7.69L55.08 7.69L55.08 7.69Q54.84 8.16 54.73 8.69L54.73 8.69L54.73 8.69Q54.61 9.21 54.61 9.75ZM53.86 10.16L53.86 10.16L53.86 10.16Q53.86 8.16 54.96 6.92L54.96 6.92L54.96 6.92Q56.05 5.69 57.89 5.69L57.89 5.69L57.89 5.69Q59.03 5.69 59.85 6.27L59.85 6.27L59.85 6.27Q60.66 6.86 61.06 7.84L61.06 7.84L61.06 7.84Q61.46 8.83 61.46 10.11L61.46 10.11L61.46 10.11Q61.46 10.75 61.30 11.38L61.30 11.38L61.30 11.38Q61.15 12.00 60.83 12.58L60.83 12.58L60.83 12.58Q60.50 13.17 60.04 13.61L60.04 13.61L60.04 13.61Q59.58 14.05 58.91 14.32L58.91 14.32L58.91 14.32Q58.23 14.58 57.42 14.58L57.42 14.58L57.42 14.58Q56.37 14.58 55.55 13.98L55.55 13.98L55.55 13.98Q54.72 13.37 54.29 12.37L54.29 12.37L54.29 12.37Q53.86 11.37 53.86 10.16ZM70.16 6.34L69.16 6.14L69.19 5.89L72.08 5.89L72.06 6.14L70.91 6.32L73.27 13.30L75.85 6.34L74.58 6.14L74.60 5.89L77.27 5.89L77.24 6.14L76.36 6.32L73.34 14.47L72.99 14.57L70.16 6.34ZM86.19 6.36L84.96 6.18L85.01 5.89L91.21 5.89L90.99 8.07L90.68 8.03L90.55 6.24L86.90 6.24L86.90 9.89L89.19 9.89L89.44 8.94L89.81 8.89L89.58 11.55L89.24 11.61L89.13 10.26L86.90 10.26L86.90 14.03L90.74 14.03L91.25 12.19L91.53 12.26L91.32 14.40L84.98 14.40L85.03 14.11L86.19 13.90L86.19 6.36ZM101.06 6.18L101.06 10.11L102.61 10.11L102.61 10.11Q103.29 9.86 103.75 9.28L103.75 9.28L103.75 9.28Q104.21 8.70 104.21 8.02L104.21 8.02L104.21 8.02Q104.21 7.11 103.59 6.63L103.59 6.63L103.59 6.63Q102.97 6.15 101.88 6.15L101.88 6.15L101.06 6.18ZM102.43 14.40L99.24 14.40L99.29 14.11L100.35 13.90L100.35 6.51L99.26 6.37L99.32 6.13L99.32 6.13Q101.14 5.83 102.22 5.83L102.22 5.83L102.22 5.83Q102.99 5.83 103.60 6.05L103.60 6.05L103.60 6.05Q104.21 6.27 104.58 6.73L104.58 6.73L104.58 6.73Q104.96 7.19 104.96 7.83L104.96 7.83L104.96 7.83Q104.96 8.57 104.53 9.14L104.53 9.14L104.53 9.14Q104.10 9.72 103.07 10.23L103.07 10.23L103.07 10.23L104.39 12.19L104.39 12.19Q105.10 13.23 105.45 13.58L105.45 13.58L105.45 13.58Q105.79 13.92 106.18 14.05L106.18 14.05L106.50 14.16L106.46 14.42L106.46 14.42Q106.17 14.52 105.83 14.52L105.83 14.52L105.83 14.52Q105.54 14.52 105.29 14.40L105.29 14.40L105.29 14.40Q105.03 14.28 104.79 14.01L104.79 14.01L104.79 14.01Q104.55 13.75 104.36 13.48L104.36 13.48L104.36 13.48Q104.18 13.22 103.91 12.77L103.91 12.77L102.52 10.49L101.06 10.49L101.06 13.95L102.50 14.08L102.43 14.40ZM128.17 6.98L126.80 10.75L129.49 10.75L128.17 6.98ZM126.85 14.40L124.12 14.40L124.15 14.11L125.13 13.90L128.12 5.82L128.48 5.73L131.32 13.95L132.22 14.08L132.17 14.39L129.37 14.39L129.43 14.10L130.57 13.90L129.62 11.13L126.66 11.13L125.65 13.95L126.91 14.08L126.85 14.40ZM151.72 6.19L151.72 14.03L152.95 14.03L152.95 14.03Q154.75 14.03 155.85 12.95L155.85 12.95L155.85 12.95Q156.95 11.87 156.95 10.12L156.95 10.12L156.95 10.12Q156.95 8.20 155.89 7.18L155.89 7.18L155.89 7.18Q154.84 6.16 152.91 6.16L152.91 6.16L152.91 6.16Q151.91 6.16 151.72 6.19L151.72 6.19ZM152.76 14.40L149.82 14.40L149.87 14.11L151.03 13.90L151.03 6.51L149.85 6.36L149.92 6.12L149.92 6.12Q152.00 5.79 153.16 5.79L153.16 5.79L153.16 5.79Q154.12 5.79 154.90 6.03L154.90 6.03L154.90 6.03Q155.67 6.26 156.19 6.66L156.19 6.66L156.19 6.66Q156.70 7.05 157.04 7.59L157.04 7.59L157.04 7.59Q157.38 8.13 157.53 8.71L157.53 8.71L157.53 8.71Q157.68 9.29 157.68 9.92L157.68 9.92L157.68 9.92Q157.68 10.64 157.51 11.28L157.51 11.28L157.51 11.28Q157.34 11.93 156.96 12.50L156.96 12.50L156.96 12.50Q156.58 13.08 156.01 13.49L156.01 13.49L156.01 13.49Q155.45 13.91 154.62 14.15L154.62 14.15L154.62 14.15Q153.79 14.40 152.76 14.40L152.76 14.40ZM166.56 6.33L165.38 6.16L165.42 5.89L168.55 5.89L168.50 6.16L167.30 6.32L167.30 13.95L168.62 14.08L168.56 14.40L165.45 14.40L165.48 14.11L166.56 13.90L166.56 6.33ZM177.54 6.36L176.33 6.18L176.38 5.89L182.57 5.89L182.35 8.09L182.01 8.04L181.87 6.24L178.25 6.24L178.25 10.07L180.52 10.07L180.79 9.11L181.17 9.06L180.96 11.72L180.58 11.77L180.46 10.43L178.25 10.43L178.25 13.92L179.93 14.03L179.85 14.40L176.36 14.40L176.38 14.11L177.54 13.90L177.54 6.36ZM191.50 6.36L190.29 6.18L190.33 5.89L196.53 5.89L196.30 8.09L195.97 8.04L195.82 6.24L192.20 6.24L192.20 10.07L194.48 10.07L194.74 9.11L195.13 9.06L194.91 11.72L194.54 11.77L194.41 10.43L192.20 10.43L192.20 13.92L193.88 14.03L193.80 14.40L190.31 14.40L190.33 14.11L191.50 13.90L191.50 6.36ZM205.46 6.36L204.24 6.18L204.29 5.89L210.48 5.89L210.27 8.07L209.95 8.03L209.82 6.24L206.17 6.24L206.17 9.89L208.46 9.89L208.71 8.94L209.08 8.89L208.86 11.55L208.51 11.61L208.40 10.26L206.17 10.26L206.17 14.03L210.01 14.03L210.52 12.19L210.80 12.26L210.59 14.40L204.26 14.40L204.30 14.11L205.46 13.90L205.46 6.36ZM220.33 6.18L220.33 10.11L221.88 10.11L221.88 10.11Q222.56 9.86 223.02 9.28L223.02 9.28L223.02 9.28Q223.48 8.70 223.48 8.02L223.48 8.02L223.48 8.02Q223.48 7.11 222.86 6.63L222.86 6.63L222.86 6.63Q222.24 6.15 221.16 6.15L221.16 6.15L220.33 6.18ZM221.70 14.40L218.51 14.40L218.56 14.11L219.63 13.90L219.63 6.51L218.53 6.37L218.59 6.13L218.59 6.13Q220.42 5.83 221.50 5.83L221.50 5.83L221.50 5.83Q222.26 5.83 222.87 6.05L222.87 6.05L222.87 6.05Q223.48 6.27 223.86 6.73L223.86 6.73L223.86 6.73Q224.23 7.19 224.23 7.83L224.23 7.83L224.23 7.83Q224.23 8.57 223.81 9.14L223.81 9.14L223.81 9.14Q223.38 9.72 222.35 10.23L222.35 10.23L222.35 10.23L223.67 12.19L223.67 12.19Q224.38 13.23 224.72 13.58L224.72 13.58L224.72 13.58Q225.07 13.92 225.45 14.05L225.45 14.05L225.78 14.16L225.74 14.42L225.74 14.42Q225.44 14.52 225.10 14.52L225.10 14.52L225.10 14.52Q224.81 14.52 224.56 14.40L224.56 14.40L224.56 14.40Q224.31 14.28 224.06 14.01L224.06 14.01L224.06 14.01Q223.82 13.75 223.64 13.48L223.64 13.48L223.64 13.48Q223.45 13.22 223.18 12.77L223.18 12.77L221.79 10.49L220.33 10.49L220.33 13.95L221.77 14.08L221.70 14.40ZM234.69 6.36L233.47 6.18L233.52 5.89L239.71 5.89L239.50 8.07L239.18 8.03L239.05 6.24L235.40 6.24L235.40 9.89L237.69 9.89L237.95 8.94L238.31 8.89L238.09 11.55L237.74 11.61L237.63 10.26L235.40 10.26L235.40 14.03L239.24 14.03L239.75 12.19L240.03 12.26L239.83 14.40L233.49 14.40L233.53 14.11L234.69 13.90L234.69 6.36ZM248.99 6.36L247.72 6.14L247.78 5.89L249.85 5.89L254.57 13.17L254.57 6.33L253.32 6.16L253.36 5.89L256.26 5.89L256.20 6.16L255.07 6.32L255.07 14.44L254.70 14.52L249.49 6.65L249.49 13.95L250.75 14.08L250.68 14.40L247.80 14.40L247.84 14.11L248.99 13.90L248.99 6.36ZM264.00 8.09L263.94 5.89L271.00 5.89L270.76 8.16L270.42 8.12L270.30 6.24L267.76 6.24L267.76 13.90L268.97 14.08L268.90 14.40L265.80 14.40L265.84 14.11L267.03 13.90L267.03 6.24L264.60 6.24L264.36 8.15L264.00 8.09ZM289.43 6.34L288.59 6.15L288.64 5.89L291.33 5.89L291.31 6.11L290.18 6.32L292.13 13.18L294.18 6.18L294.49 6.14L296.43 13.18L298.64 6.36L297.36 6.13L297.40 5.89L300.02 5.89L300.00 6.14L299.19 6.34L296.50 14.49L296.05 14.57L294.22 7.63L292.20 14.49L291.72 14.57L289.43 6.34ZM308.49 9.75L308.49 9.75L308.49 9.75Q308.49 11.03 308.85 12.01L308.85 12.01L308.85 12.01Q309.22 13.00 309.93 13.57L309.93 13.57L309.93 13.57Q310.65 14.14 311.63 14.14L311.63 14.14L311.63 14.14Q312.20 14.14 312.70 13.92L312.70 13.92L312.70 13.92Q313.19 13.70 313.53 13.33L313.53 13.33L313.53 13.33Q313.88 12.96 314.12 12.49L314.12 12.49L314.12 12.49Q314.36 12.01 314.48 11.50L314.48 11.50L314.48 11.50Q314.60 10.99 314.60 10.48L314.60 10.48L314.60 10.48Q314.60 8.50 313.75 7.29L313.75 7.29L313.75 7.29Q312.89 6.07 311.45 6.07L311.45 6.07L311.45 6.07Q310.86 6.07 310.37 6.28L310.37 6.28L310.37 6.28Q309.88 6.49 309.54 6.85L309.54 6.85L309.54 6.85Q309.20 7.21 308.96 7.69L308.96 7.69L308.96 7.69Q308.72 8.16 308.60 8.69L308.60 8.69L308.60 8.69Q308.49 9.21 308.49 9.75ZM307.74 10.16L307.74 10.16L307.74 10.16Q307.74 8.16 308.84 6.92L308.84 6.92L308.84 6.92Q309.93 5.69 311.77 5.69L311.77 5.69L311.77 5.69Q312.91 5.69 313.73 6.27L313.73 6.27L313.73 6.27Q314.54 6.86 314.94 7.84L314.94 7.84L314.94 7.84Q315.33 8.83 315.33 10.11L315.33 10.11L315.33 10.11Q315.33 10.75 315.18 11.38L315.18 11.38L315.18 11.38Q315.03 12.00 314.71 12.58L314.71 12.58L314.71 12.58Q314.38 13.17 313.92 13.61L313.92 13.61L313.92 13.61Q313.46 14.05 312.79 14.32L312.79 14.32L312.79 14.32Q312.11 14.58 311.30 14.58L311.30 14.58L311.30 14.58Q310.25 14.58 309.43 13.98L309.43 13.98L309.43 13.98Q308.60 13.37 308.17 12.37L308.17 12.37L308.17 12.37Q307.74 11.37 307.74 10.16ZM324.88 6.18L324.88 10.11L326.43 10.11L326.43 10.11Q327.11 9.86 327.57 9.28L327.57 9.28L327.57 9.28Q328.03 8.70 328.03 8.02L328.03 8.02L328.03 8.02Q328.03 7.11 327.41 6.63L327.41 6.63L327.41 6.63Q326.79 6.15 325.71 6.15L325.71 6.15L324.88 6.18ZM326.25 14.40L323.06 14.40L323.11 14.11L324.17 13.90L324.17 6.51L323.08 6.37L323.14 6.13L323.14 6.13Q324.97 5.83 326.05 5.83L326.05 5.83L326.05 5.83Q326.81 5.83 327.42 6.05L327.42 6.05L327.42 6.05Q328.03 6.27 328.41 6.73L328.41 6.73L328.41 6.73Q328.78 7.19 328.78 7.83L328.78 7.83L328.78 7.83Q328.78 8.57 328.35 9.14L328.35 9.14L328.35 9.14Q327.93 9.72 326.89 10.23L326.89 10.23L326.89 10.23L328.21 12.19L328.21 12.19Q328.92 13.23 329.27 13.58L329.27 13.58L329.27 13.58Q329.62 13.92 330.00 14.05L330.00 14.05L330.33 14.16L330.29 14.42L330.29 14.42Q329.99 14.52 329.65 14.52L329.65 14.52L329.65 14.52Q329.36 14.52 329.11 14.40L329.11 14.40L329.11 14.40Q328.86 14.28 328.61 14.01L328.61 14.01L328.61 14.01Q328.37 13.75 328.19 13.48L328.19 13.48L328.19 13.48Q328.00 13.22 327.73 12.77L327.73 12.77L326.34 10.49L324.88 10.49L324.88 13.95L326.32 14.08L326.25 14.40ZM344.18 14.40L338.03 14.40L338.06 14.11L339.22 13.90L339.22 6.34L338.04 6.17L338.07 5.90L341.18 5.90L341.15 6.17L339.95 6.32L339.95 14.03L343.57 14.03L344.10 12.09L344.40 12.14L344.18 14.40ZM354.01 6.19L354.01 14.03L355.24 14.03L355.24 14.03Q357.05 14.03 358.15 12.95L358.15 12.95L358.15 12.95Q359.24 11.87 359.24 10.12L359.24 10.12L359.24 10.12Q359.24 8.20 358.19 7.18L358.19 7.18L358.19 7.18Q357.14 6.16 355.20 6.16L355.20 6.16L355.20 6.16Q354.20 6.16 354.01 6.19L354.01 6.19ZM355.06 14.40L352.11 14.40L352.17 14.11L353.32 13.90L353.32 6.51L352.15 6.36L352.21 6.12L352.21 6.12Q354.30 5.79 355.46 5.79L355.46 5.79L355.46 5.79Q356.42 5.79 357.19 6.03L357.19 6.03L357.19 6.03Q357.97 6.26 358.48 6.66L358.48 6.66L358.48 6.66Q359.00 7.05 359.34 7.59L359.34 7.59L359.34 7.59Q359.68 8.13 359.83 8.71L359.83 8.71L359.83 8.71Q359.98 9.29 359.98 9.92L359.98 9.92L359.98 9.92Q359.98 10.64 359.81 11.28L359.81 11.28L359.81 11.28Q359.64 11.93 359.26 12.50L359.26 12.50L359.26 12.50Q358.87 13.08 358.31 13.49L358.31 13.49L358.31 13.49Q357.75 13.91 356.91 14.15L356.91 14.15L356.91 14.15Q356.08 14.40 355.06 14.40L355.06 14.40ZM371.54 14.40L367.82 14.40L367.82 5.07L371.54 5.07L371.54 14.40ZM368.29 5.53L368.29 13.93L371.08 13.93L371.08 5.53L368.29 5.53Z"></path></g></svg>